<?xml version="1.0" encoding="utf-8"?>
<!-- Generator: Adobe Illustrator 19.0.1, SVG Export Plug-In . SVG Version: 6.00 Build 0)  -->
<svg version="1.1" id="Capa_1" xmlns="http://www.w3.org/2000/svg" xmlns:xlink="http://www.w3.org/1999/xlink" x="0px" y="0px"
	 viewBox="229 -229.7 476.7 476.7" style="enable-background:new 229 -229.7 476.7 476.7;" xml:space="preserve">
<style type="text/css">
	.st0{fill:#ffffff;}
</style>
<g>
	<path class="st0" d="M467.4-229.7C335.7-229.7,229-123,229,8.6C229,140.3,335.7,247,467.4,247S705.8,140.3,705.8,8.6
		C705.7-123,599-229.7,467.4-229.7z M577.8-79.4L489.1,9.2l78.4,87.3c6.2,6.2,6.2,16.3,0,22.5s-16.3,6.2-22.4,0l-78.4-87.3
		l-87.4,87.4c-6.2,6.2-16.3,6.2-22.5,0c-6.2-6.2-6.2-16.3,0-22.5L445.5,8l-78.4-87.4c-6.2-6.2-6.2-16.3,0-22.5
		c6.2-6.2,16.3-6.2,22.5,0L468-14.5l87.3-87.4c6.2-6.2,16.3-6.2,22.5,0C584-95.6,584-85.5,577.8-79.4z"/>
</g>
</svg>
