<svg xml:space="preserve" enable-background="new -379 346 16 16" viewBox="-379 346 16 16" height="14px" width="14px" y="0px" x="0px" xmlns:xlink="http://www.w3.org/1999/xlink" xmlns="http://www.w3.org/2000/svg" version="1.1"><g><path d="M-369.9,356.1c-0.2-0.2-0.3-0.4-0.5-0.6c-0.2-0.2-0.4-0.4-0.6-0.5c-0.2-0.2-0.4-0.3-0.5-0.4 c-0.2-0.1-0.3-0.3-0.4-0.4c-0.1-0.2-0.1-0.3-0.1-0.5c0-0.2,0.1-0.4,0.2-0.6s0.3-0.4,0.5-0.5c0.2-0.2,0.4-0.4,0.6-0.6 c0.2-0.2,0.4-0.5,0.5-0.8c0.1-0.3,0.2-0.7,0.2-1.2c0-0.5-0.1-1-0.4-1.5c-0.2-0.5-0.6-0.9-1-1.1h1.2l1.2-0.7h-3.9 c-0.6,0-1.1,0.1-1.7,0.2c-0.8,0.2-1.5,0.6-2.1,1.3c-0.6,0.7-0.9,1.4-0.9,2.3c0,0.9,0.3,1.6,1,2.2c0.6,0.6,1.4,0.9,2.3,0.9 c0.2,0,0.4,0,0.6,0c0,0,0,0.1-0.1,0.2c0,0.1-0.1,0.1-0.1,0.2c0,0,0,0.1,0,0.2c0,0.1,0,0.1,0,0.2c0,0.4,0.2,0.8,0.6,1.3 c-0.5,0-0.9,0.1-1.4,0.1c-0.4,0.1-0.9,0.2-1.4,0.3c-0.5,0.1-0.9,0.4-1.3,0.6c-0.4,0.3-0.7,0.6-0.9,1c-0.2,0.4-0.3,0.9-0.3,1.2 c0,0.4,0.1,0.8,0.3,1.1c0.2,0.3,0.4,0.6,0.7,0.8c0.3,0.2,0.6,0.4,1,0.5c0.4,0.1,0.7,0.2,1.1,0.3s0.7,0.1,1.1,0.1 c1.6,0,2.9-0.4,3.8-1.2c0.8-0.7,1.3-1.6,1.3-2.5c0-0.3,0-0.7-0.1-1C-369.6,356.5-369.7,356.3-369.9,356.1z M-373.3,352.8 c-0.3,0-0.6-0.1-0.9-0.2s-0.5-0.4-0.7-0.6c-0.2-0.2-0.4-0.5-0.5-0.8c-0.1-0.3-0.3-0.6-0.3-0.9c-0.1-0.3-0.1-0.6-0.1-0.9 c0-0.6,0.2-1.1,0.5-1.5c0.3-0.4,0.7-0.6,1.3-0.6c0.4,0,0.8,0.1,1.1,0.4c0.3,0.2,0.6,0.6,0.8,0.9c0.2,0.4,0.3,0.8,0.4,1.2 c0.1,0.4,0.1,0.8,0.1,1.1c0,0.6-0.1,1.1-0.4,1.4C-372.3,352.6-372.8,352.8-373.3,352.8z M-370.9,359.5c-0.2,0.3-0.4,0.5-0.7,0.7 c-0.3,0.2-0.6,0.3-0.9,0.4c-0.3,0.1-0.7,0.1-1,0.1c-0.4,0-0.8,0-1.1-0.1c-0.4-0.1-0.7-0.2-1.1-0.4c-0.3-0.2-0.6-0.4-0.8-0.8 c-0.2-0.3-0.3-0.7-0.3-1.1c0-0.4,0.1-0.7,0.2-1c0.2-0.3,0.4-0.5,0.6-0.7c0.3-0.2,0.5-0.3,0.9-0.4c0.3-0.1,0.7-0.2,1-0.2 c0.3,0,0.6-0.1,1-0.1c0.2,0,0.3,0,0.5,0c0,0,0.1,0.1,0.3,0.2c0.1,0.1,0.2,0.2,0.3,0.2c0.1,0,0.1,0.1,0.3,0.2 c0.1,0.1,0.2,0.2,0.3,0.2c0.1,0.1,0.1,0.1,0.2,0.2c0.1,0.1,0.2,0.2,0.2,0.3c0.1,0.1,0.1,0.2,0.2,0.3c0.1,0.1,0.1,0.2,0.2,0.3 c0,0.1,0.1,0.2,0.1,0.3c0,0.1,0,0.2,0,0.4C-370.6,358.9-370.7,359.3-370.9,359.5z" fill="#FFFFFF"/><polygon points="-365.8,348.8 -365.8,346.5 -367,346.5 -367,348.8 -369.3,348.8 -369.3,350 -367,350 -367,352.3  -365.8,352.3 -365.8,350 -363.5,350 -363.5,348.8" fill="#FFFFFF"/></g></svg>