<svg xml:space="preserve" enable-background="new -379 346 16 16" viewBox="-379 346 16 16" height="14px" width="14px" y="0px" x="0px" xmlns:xlink="http://www.w3.org/1999/xlink" xmlns="http://www.w3.org/2000/svg" version="1.1">
    <path d="M-363,349c-0.6,0.3-1.3,0.4-1.9,0.5c0.7-0.4,1.2-1,1.4-1.8c-0.6,0.4-1.3,0.6-2.1,0.8c-0.6-0.7-1.4-1-2.4-1 c-0.9,0-1.7,0.3-2.3,1c-0.6,0.6-1,1.4-1,2.3c0,0.2,0,0.5,0.1,0.8c-1.3-0.1-2.6-0.4-3.8-1c-1.2-0.6-2.2-1.4-3-2.4 c-0.3,0.5-0.4,1.1-0.4,1.7c0,0.6,0.1,1.1,0.4,1.6c0.3,0.5,0.6,0.9,1.1,1.2c-0.5,0-1-0.2-1.5-0.4v0c0,0.8,0.2,1.5,0.7,2.1 s1.1,1,1.9,1.1c-0.3,0.1-0.6,0.1-0.9,0.1c-0.2,0-0.4,0-0.6-0.1c0.2,0.7,0.6,1.2,1.2,1.6c0.6,0.4,1.2,0.6,1.9,0.7 c-1.2,0.9-2.5,1.4-4.1,1.4c-0.3,0-0.6,0-0.8,0c1.5,1,3.2,1.5,5,1.5c1.2,0,2.3-0.2,3.3-0.6c1-0.4,1.9-0.9,2.6-1.5 c0.7-0.6,1.3-1.3,1.9-2.1c0.5-0.8,0.9-1.6,1.2-2.5c0.3-0.9,0.4-1.8,0.4-2.6c0-0.2,0-0.3,0-0.4C-364,350.3-363.5,349.7-363,349z" fill="#FFFFFF"/>
</svg>