<svg version="1.1" xmlns="http://www.w3.org/2000/svg" xmlns:xlink="http://www.w3.org/1999/xlink" x="0px" y="0px" width="14" height="14" viewBox="0 0 16 16" enable-background="new 0 0 16 16" xml:space="preserve">
    <g>
        <g>
            <path fill-rule="evenodd" clip-rule="evenodd" fill="#FFFFFF" d="M8.141,0.209c-4.192,0-7.59,3.398-7.59,7.59 c0,1.434,0.397,2.775,1.089,3.919l-1.37,4.072l4.202-1.345c1.087,0.602,2.337,0.944,3.669,0.944c4.192,0,7.59-3.398,7.59-7.59 C15.73,3.607,12.333,0.209,8.141,0.209z M8.141,14.117c-1.284,0-2.479-0.385-3.477-1.044L2.236,13.85l0.79-2.346 c-0.757-1.042-1.203-2.322-1.203-3.705c0-3.484,2.834-6.319,6.318-6.319s6.318,2.834,6.318,6.319 C14.459,11.283,11.625,14.117,8.141,14.117z M11.699,9.524c-0.19-0.104-1.125-0.609-1.3-0.68 c-0.175-0.071-0.303-0.108-0.439,0.081C9.822,9.113,9.435,9.536,9.318,9.662C9.2,9.786,9.086,9.798,8.896,9.693 c-0.19-0.104-0.807-0.332-1.522-1.02C6.817,8.138,6.452,7.49,6.346,7.292c-0.106-0.199-0.001-0.3,0.1-0.392 c0.09-0.084,0.202-0.22,0.304-0.329C6.85,6.461,6.886,6.382,6.955,6.255c0.069-0.126,0.042-0.241-0.003-0.339 C6.907,5.816,6.555,4.848,6.408,4.455C6.262,4.061,6.098,4.12,5.984,4.115S5.743,4.09,5.613,4.085 C5.484,4.081,5.272,4.121,5.088,4.308C4.903,4.495,4.385,4.945,4.35,5.898C4.313,6.852,4.973,7.799,5.065,7.932 c0.092,0.133,1.26,2.199,3.2,3.049c1.94,0.849,1.951,0.591,2.307,0.571c0.356-0.019,1.164-0.426,1.342-0.872 c0.179-0.446,0.193-0.834,0.147-0.917S11.89,9.627,11.699,9.524z"/>
        </g>
    </g>
</svg>
